<?xml version="1.0" encoding="iso-8859-1"?>
<!-- Generator: Adobe Illustrator 19.0.0, SVG Export Plug-In . SVG Version: 6.00 Build 0)  -->
<svg version="1.1" id="Layer_1" xmlns="http://www.w3.org/2000/svg" xmlns:xlink="http://www.w3.org/1999/xlink" x="0px" y="0px"
	 viewBox="0 0 511.999 511.999" style="enable-background:new 0 0 511.999 511.999;" xml:space="preserve">
<path style="fill:#9ACAEB;" d="M345.339,108.179h-33.324V56.363c0-6.101-4.963-11.064-11.063-11.064h-89.903
	c-6.101,0-11.064,4.963-11.064,11.064v51.817h-33.324V56.363c0-24.475,19.913-44.388,44.388-44.388h89.903
	c24.474,0,44.387,19.913,44.387,44.388L345.339,108.179L345.339,108.179z"/>
<path style="opacity:0.15;enable-background:new    ;" d="M321.035,102.767V50.951c0-6.101-4.963-11.063-11.063-11.063h-98.929
	c-6.101,0-11.064,4.963-11.064,11.063v51.817h-24.299V50.951c0-14.268,6.774-26.976,17.266-35.102
	c-15.475,6.942-26.286,22.484-26.286,40.514v51.817h33.324V56.363c0-6.101,4.963-11.063,11.064-11.063h89.903
	c6.1,0,11.063,4.963,11.063,11.063v51.817h33.324v-5.412h-24.304V102.767z"/>
<path style="fill:#6DABE4;" d="M405.504,500.025H106.496c-25.287,0-45.786-20.499-45.786-45.786V125.884
	c0-25.287,20.499-45.786,45.786-45.786h299.008c25.287,0,45.786,20.499,45.786,45.786v328.355
	C451.29,479.525,430.791,500.025,405.504,500.025z"/>
<path style="fill:#333E48;" d="M60.71,259.729v194.51c0,25.287,20.499,45.786,45.786,45.786h299.008
	c25.287,0,45.786-20.499,45.786-45.786v-194.51H60.71z"/>
<path style="fill:#9ACAEB;" d="M359.612,453.292H152.388c-8.864,0-16.051-7.186-16.051-16.051V319.939
	c0-8.864,7.186-16.051,16.051-16.051h207.225c8.864,0,16.051,7.186,16.051,16.051V437.24
	C375.664,446.106,368.478,453.292,359.612,453.292z"/>
<path style="fill:#FFFFFF;" d="M280.313,386.527h-48.626c-4.193,0-7.593,3.4-7.593,7.593v18.651c0,4.193,3.4,7.592,7.592,7.592
	h48.626c4.193,0,7.592-3.4,7.592-7.592v-18.651C287.906,389.928,284.506,386.527,280.313,386.527z"/>
<path style="fill:#6DABE4;" d="M60.71,441.835H22.984c-8.209,0-14.865-6.655-14.865-14.865v-97.808
	c0-8.209,6.655-14.865,14.865-14.865H60.71V441.835z"/>
<rect x="40.949" y="314.875" style="opacity:0.15;enable-background:new    ;" width="19.761" height="126.961"/>
<path style="fill:#6DABE4;" d="M451.283,441.835h37.727c8.209,0,14.865-6.655,14.865-14.865v-97.808
	c0-8.209-6.655-14.865-14.865-14.865h-37.727V441.835z"/>
<path style="opacity:0.15;enable-background:new    ;" d="M500.556,428.992h-30.559c-3.96,0-7.168-3.209-7.168-7.169V314.297
	h-11.547v127.539h37.727c7.648,0,13.939-5.776,14.767-13.203C502.739,428.862,501.664,428.992,500.556,428.992z"/>
<path style="opacity:0.15;enable-background:new    ;" d="M168.624,436.61c-8.864,0-16.051-7.186-16.051-16.051V303.889h-0.186
	c-8.864,0-16.051,7.186-16.051,16.051V437.24c0,8.864,7.186,16.051,16.051,16.051h207.225c8.864,0,16.051-7.186,16.051-16.051
	v-0.631H168.624V436.61z"/>
<path style="opacity:0.15;enable-background:new    ;" d="M428.596,478.376H129.589c-25.287,0-45.786-20.499-45.786-45.786V104.235
	c0-7.387,1.76-14.359,4.867-20.536C72.24,90.65,60.712,106.92,60.712,125.884v328.355c0,25.287,20.499,45.786,45.786,45.786h299.008
	c17.9,0,33.39-10.278,40.919-25.249C440.945,477.093,434.92,478.376,428.596,478.376z"/>
<path style="fill:#1E252B;" d="M128.218,319.939V437.24c0,13.327,10.843,24.17,24.17,24.17h207.225
	c13.326,0,24.169-10.843,24.169-24.17V319.939c0-13.326-10.843-24.169-24.169-24.169H152.388
	C139.061,295.77,128.218,306.612,128.218,319.939z M367.546,437.24c0,4.374-3.558,7.933-7.932,7.933H152.388
	c-4.374,0-7.933-3.559-7.933-7.933v-81.358h20.038c-3.449,6.761-5.325,14.306-5.325,19.839c0,14.379,11.699,26.078,26.078,26.078
	c14.379,0,26.078-11.699,26.078-26.078c0-5.532-1.875-13.078-5.325-19.839h161.545L367.546,437.24L367.546,437.24z M175.405,375.721
	c0-8.592,7.207-19.839,9.842-19.839s9.842,11.247,9.842,19.839c0,5.426-4.414,9.842-9.842,9.842
	C179.819,385.563,175.405,381.148,175.405,375.721z M367.546,319.939v19.707H144.454v-19.707c0-4.373,3.559-7.932,7.933-7.932
	h207.225C363.988,312.007,367.546,315.565,367.546,319.939z M489.017,306.178h-29.609V125.884c0-29.723-24.181-53.904-53.904-53.904
	h-52.046V56.363c0-28.952-23.554-52.507-52.505-52.507h-89.903c-28.952,0-52.508,23.554-52.508,52.507V71.98h-52.044
	c-29.723,0-53.905,24.181-53.905,53.904v180.294H22.983C10.309,306.178,0,316.489,0,329.162v97.808
	c0,12.672,10.309,22.983,22.983,22.983h29.608v4.285c0,29.723,24.181,53.904,53.904,53.904h299.008
	c29.723,0,53.904-24.181,53.904-53.904v-4.285h29.609c12.673,0,22.983-10.31,22.983-22.983v-97.808
	C512,316.489,501.691,306.178,489.017,306.178z M52.592,433.717H22.983c-3.72,0-6.746-3.027-6.746-6.746v-66.787h36.355V433.717z
	 M52.592,343.946H16.237v-14.784c0-3.72,3.027-6.747,6.746-6.747h29.608v21.531H52.592z M174.779,56.363
	c0-19.999,16.27-36.27,36.271-36.27h89.903c19.999,0,36.269,16.27,36.269,36.27V71.98h-17.088V56.363
	c0-10.577-8.604-19.182-19.181-19.182H211.05c-10.577,0-19.183,8.605-19.183,19.182V71.98h-17.088V56.363z M303.896,56.363V71.98
	h-95.793V56.363c0-1.624,1.322-2.945,2.946-2.945h89.903C302.576,53.418,303.896,54.74,303.896,56.363z M443.171,454.239
	c0,20.77-16.897,37.667-37.667,37.667H106.496c-20.77,0-37.667-16.897-37.667-37.667V187.184h36.782
	c-3.449,6.761-5.325,14.306-5.325,19.839c0,14.379,11.699,26.078,26.078,26.078s26.078-11.699,26.078-26.078
	c0-5.532-1.876-13.078-5.325-19.839h296.053V454.239z M116.523,207.022c0-8.593,7.207-19.839,9.842-19.839
	c2.635,0,9.842,11.247,9.842,19.839c0,5.426-4.414,9.842-9.842,9.842C120.938,216.864,116.523,212.45,116.523,207.022z
	 M443.171,170.947H68.829v-45.064c0-20.77,16.897-37.667,37.668-37.667h299.007c20.77,0,37.667,16.897,37.667,37.667
	L443.171,170.947L443.171,170.947z M495.763,426.97c0,3.719-3.027,6.746-6.746,6.746h-29.609v-73.534h36.355V426.97z
	 M495.763,343.946h-36.355v-21.531h29.609c3.719,0,6.746,3.027,6.746,6.747V343.946z"/>
<g>
</g>
<g>
</g>
<g>
</g>
<g>
</g>
<g>
</g>
<g>
</g>
<g>
</g>
<g>
</g>
<g>
</g>
<g>
</g>
<g>
</g>
<g>
</g>
<g>
</g>
<g>
</g>
<g>
</g>
</svg>
