<?xml version="1.0" encoding="iso-8859-1"?>
<!-- Generator: Adobe Illustrator 19.0.0, SVG Export Plug-In . SVG Version: 6.00 Build 0)  -->
<svg version="1.1" id="Layer_1" xmlns="http://www.w3.org/2000/svg" xmlns:xlink="http://www.w3.org/1999/xlink" x="0px" y="0px"
	 viewBox="0 0 511.999 511.999" style="enable-background:new 0 0 511.999 511.999;" xml:space="preserve">
<path style="fill:#77E0C1;" d="M326.355,11.526L11.521,326.361c-4.753,4.753-4.753,12.456,0,17.209l156.904,156.904
	c4.751,4.751,12.457,4.751,17.209,0L500.469,185.64c4.751-4.753,4.751-12.456,0-17.209L343.563,11.526
	C338.812,6.774,331.107,6.774,326.355,11.526z"/>
<g>
	<path style="fill:#4C9462;" d="M120.289,452.337l48.136,48.136c4.751,4.751,12.457,4.751,17.209,0l48.136-48.136
		C202.433,421,151.625,421,120.289,452.337z M11.521,343.569l48.136,48.136c31.338-31.337,31.338-82.145,0-113.482L11.521,326.36
		C6.768,331.112,6.768,338.817,11.521,343.569z M326.355,11.526l-48.77,48.771c31.544,31.544,82.817,31.336,114.101-0.625
		c0-0.01,0-0.015,0-0.025l-48.12-48.12C338.812,6.774,331.107,6.774,326.355,11.526z M451.698,234.41l48.771-48.771
		c4.751-4.751,4.751-12.456,0-17.209l-48.12-48.12c-0.01,0-0.016,0-0.025,0C420.361,151.593,420.153,202.867,451.698,234.41z"/>
	<circle style="fill:#4C9462;" cx="255.675" cy="256.313" r="94.318"/>
</g>
<circle style="opacity:0.1;enable-background:new    ;" cx="255.675" cy="256.313" r="54.891"/>
<path style="opacity:0.1;enable-background:new    ;" d="M25.226,312.655l-13.705,13.705c-4.753,4.753-4.753,12.456,0,17.209
	l156.904,156.904c4.751,4.751,12.457,4.751,17.209,0l13.705-13.705L25.226,312.655z"/>
<circle style="fill:#FFB547;" cx="369.039" cy="363.442" r="111.92"/>
<circle style="fill:#FEE050;" cx="369.039" cy="363.442" r="79.022"/>
<path style="opacity:0.07;enable-background:new    ;" d="M385.353,464.072c-61.812,0-111.92-50.108-111.92-111.92
	c0-34.601,15.706-65.532,40.372-86.062c-33.849,19.247-56.681,55.633-56.681,97.355c0,61.812,50.108,111.92,111.92,111.92
	c27.21,0,52.148-9.713,71.548-25.858C424.293,458.775,405.442,464.072,385.353,464.072z"/>
<path style="fill:#1E252B;" d="M121.584,390.411c1.555,1.555,3.595,2.334,5.633,2.334s4.078-0.778,5.633-2.334l40.405-40.405
	c3.111-3.111,3.111-8.156,0-11.266c-3.111-3.111-8.156-3.111-11.266,0l-40.405,40.405
	C118.472,382.255,118.472,387.299,121.584,390.411z M511.999,177.036c0-5.378-2.095-10.435-5.898-14.237L349.196,5.892
	c-7.852-7.85-20.624-7.849-28.476,0L5.888,320.728c-7.85,7.85-7.85,20.624,0,28.475l156.904,156.905
	c3.926,3.925,9.081,5.887,14.237,5.887s10.312-1.963,14.237-5.888l77.316-77.315c21.414,32.808,58.446,54.54,100.462,54.54
	c66.104,0,119.886-53.781,119.886-119.887c0-42.017-21.731-79.047-54.539-100.461l71.709-71.71
	C509.905,187.47,511.999,182.414,511.999,177.036z M472.996,363.445c0,57.32-46.632,103.953-103.952,103.953
	s-103.953-46.633-103.953-103.953s46.633-103.953,103.953-103.953S472.996,306.126,472.996,363.445z M250.989,342.515
	c-21.31-1.126-41.115-9.883-56.37-25.139c-33.667-33.668-33.667-88.449,0-122.116c16.31-16.31,37.994-25.291,61.059-25.291
	c23.064,0,44.749,8.982,61.058,25.291c13.964,13.963,22.596,32.054,24.743,51.503C295.28,257.674,259.322,295.385,250.989,342.515z
	 M494.834,180.006L419.93,254.91c-15.456-7.275-32.703-11.352-50.885-11.352c-3.989,0-7.932,0.201-11.822,0.583
	c-2.701-22.714-12.884-43.815-29.22-60.149c-19.318-19.318-45.005-29.959-72.325-29.959c-27.321,0-53.007,10.64-72.326,29.959
	c-39.879,39.879-39.879,104.77,0,144.65c17.868,17.867,41.012,28.252,65.919,29.76c-0.069,1.673-0.114,3.352-0.114,5.043
	c0,18.184,4.077,35.431,11.352,50.887l-80.509,80.51c-1.638,1.639-4.303,1.638-5.941,0L17.155,337.936
	c-1.638-1.638-1.638-4.303,0-5.941L331.988,17.16c1.637-1.639,4.303-1.64,5.942-0.001l156.904,156.905
	c0.794,0.794,1.231,1.848,1.231,2.971C496.066,178.157,495.629,179.212,494.834,180.006z M361.078,309.466v10.32h-4.335
	c-14.233,0-25.813,11.58-25.813,25.813s11.579,25.813,25.813,25.813h4.335v19.759h-22.181c-4.401,0-7.967,3.567-7.967,7.967
	c0,4.4,3.566,7.967,7.967,7.967h22.181v10.32c0,4.4,3.566,7.967,7.967,7.967s7.967-3.567,7.967-7.967v-10.32h4.334
	c14.233,0,25.814-11.58,25.814-25.813s-11.58-25.814-25.814-25.814h-4.334v-19.759h22.181c4.401,0,7.967-3.567,7.967-7.967
	s-3.566-7.967-7.967-7.967h-22.181v-10.32c0-4.4-3.566-7.967-7.967-7.967C364.644,301.499,361.078,305.066,361.078,309.466z
	 M361.078,355.478h-4.335c-5.447,0-9.879-4.432-9.879-9.879c0-5.448,4.432-9.879,9.879-9.879h4.335V355.478z M377.012,371.412h4.334
	c5.448,0,9.88,4.432,9.88,9.88c0,5.447-4.432,9.879-9.88,9.879h-4.334V371.412z M282.055,363.445c0,47.966,39.023,86.99,86.99,86.99
	s86.989-39.023,86.989-86.99c0-47.965-39.022-86.989-86.989-86.989S282.055,315.479,282.055,363.445z M440.098,363.445
	c0,39.18-31.875,71.056-71.055,71.056c-39.18,0-71.056-31.875-71.056-71.056c0-39.179,31.875-71.055,71.056-71.055
	C408.223,292.391,440.098,324.265,440.098,363.445z M378.504,122.223l-40.405,40.405c-3.111,3.111-3.111,8.156,0,11.266
	c1.556,1.555,3.596,2.334,5.634,2.334c2.038,0,4.078-0.778,5.634-2.334l40.405-40.405c3.111-3.111,3.111-8.156,0-11.266
	C386.66,119.113,381.617,119.113,378.504,122.223z"/>
<g>
</g>
<g>
</g>
<g>
</g>
<g>
</g>
<g>
</g>
<g>
</g>
<g>
</g>
<g>
</g>
<g>
</g>
<g>
</g>
<g>
</g>
<g>
</g>
<g>
</g>
<g>
</g>
<g>
</g>
</svg>
