<?xml version="1.0" encoding="iso-8859-1"?>
<!-- Generator: Adobe Illustrator 19.0.0, SVG Export Plug-In . SVG Version: 6.00 Build 0)  -->
<svg version="1.1" id="Layer_1" xmlns="http://www.w3.org/2000/svg" xmlns:xlink="http://www.w3.org/1999/xlink" x="0px" y="0px"
	 viewBox="0 0 511.999 511.999" style="enable-background:new 0 0 511.999 511.999;" xml:space="preserve">
<path style="fill:#7D868C;" d="M255.073,398.31l-65.059,65.059c-30.404,30.404-79.877,30.404-110.281,0L30.804,414.44
	c-30.404-30.404-30.404-79.877,0-110.281L95.864,239.1l31.065,31.065L61.87,335.224c-13.275,13.275-13.275,34.875,0,48.15
	l48.928,48.928c13.275,13.275,34.875,13.275,48.15,0l65.059-65.059L255.073,398.31z"/>
<path style="opacity:0.1;enable-background:new    ;" d="M55.214,373.948c-6.015-12.65-3.8-28.266,6.655-38.723l65.059-65.059
	l-6.775-6.775L106.7,276.846l-24.29-24.29l-33.749,33.749l24.29,24.292l-16.504,16.504
	C43.598,339.948,43.187,360.598,55.214,373.948z M255.073,398.31l-8.124-8.124l-13.454,13.454l-22.941-22.941l-33.749,33.749
	l22.941,22.941l-9.731,9.731c-30.404,30.404-79.877,30.404-110.281,0l-48.929-48.928c-13.137-13.137-20.586-29.836-22.37-47.016
	c-2.345,22.582,5.103,45.998,22.37,63.265l48.928,48.928c30.404,30.406,79.877,30.404,110.281,0l17.856-17.856l0,0l33.749-33.749
	l0,0L255.073,398.31z"/>
<path style="fill:#E8E8E8;" d="M250.769,33.24L52.163,231.846c-9.907,9.907-9.907,25.972,0,35.879L262.078,477.64
	c9.907,9.907,25.972,9.907,35.879,0l198.606-198.606c9.907-9.907,9.907-25.972,0-35.879L286.648,33.24
	C276.741,23.332,260.678,23.332,250.769,33.24z"/>
<g style="opacity:0.1;">
	<path d="M308.063,445.052c-13.846,9.474-25.972,9.907-35.879,0L62.269,235.137c-2.37-2.371-4.156-5.098-5.392-8.003l-4.713,4.713
		c-9.907,9.909-9.907,25.972,0,35.879L262.079,477.64c9.907,9.907,25.972,9.907,35.879,0l150.009-150.009
		C390.277,376.737,316.38,439.362,308.063,445.052z"/>
</g>
<path style="fill:#FF6361;" d="M276.548,188.976c-20.887,0-37.778,17.106-37.428,38.074c0.343,20.525,17.516,36.794,38.044,36.794
	h68.515c3.167,0,5.734-2.567,5.734-5.735v-68.515c0-20.528-16.269-37.701-36.794-38.044
	C293.654,151.199,276.548,168.09,276.548,188.976z"/>
<path style="fill:#333E48;" d="M221.066,255.261l-5.672-5.672c-4.132-4.132-10.832-4.132-14.964,0l-37.876,37.876
	c-4.132,4.132-4.132,10.832,0,14.964l5.672,5.672c4.132,4.132,10.832,4.132,14.964,0l0,0c4.761-4.761,12.48-4.761,17.24,0
	l22.427,22.427c4.761,4.761,4.761,12.48,0,17.24l0,0c-4.132,4.132-4.132,10.832,0,14.964l5.672,5.672
	c4.132,4.132,10.832,4.132,14.964,0l37.876-37.876c4.132-4.132,4.132-10.832,0-14.964l-5.672-5.672
	c-4.132-4.132-10.832-4.132-14.964,0l0,0c-4.761,4.761-12.48,4.761-17.24,0l-22.427-22.427c-4.761-4.761-4.761-12.48,0-17.24l0,0
	C225.198,266.093,225.198,259.394,221.066,255.261z"/>
<path style="fill:#1E252B;" d="M502.225,237.493L292.31,27.578c-13.011-13.009-34.186-13.011-47.201,0L46.502,226.186
	c-6.304,6.304-9.775,14.686-9.775,23.6c0,8.915,3.471,17.296,9.775,23.6l1.878,1.876l-23.236,23.236
	c-33.525,33.527-33.525,88.078,0,121.604l48.928,48.928c16.217,16.217,37.81,25.149,60.801,25.149s44.585-8.931,60.8-25.149
	l23.236-23.237l37.508,37.508c6.508,6.507,15.052,9.759,23.6,9.759c8.546,0,17.094-3.254,23.6-9.759l198.606-198.605
	c6.304-6.304,9.775-14.686,9.775-23.601C512,252.18,508.529,243.798,502.225,237.493z M184.353,457.708
	c-13.193,13.193-30.765,20.46-49.48,20.46s-36.287-7.267-49.48-20.46L36.466,408.78c-27.283-27.283-27.283-71.676,0-98.959
	l23.236-23.236l19.744,19.744L56.21,329.564c-7.933,7.933-12.301,18.492-12.301,29.736c0,11.243,4.369,21.803,12.301,29.735
	l48.927,48.928c7.933,7.934,18.492,12.302,29.735,12.302c11.244,0,21.803-4.369,29.735-12.301l23.236-23.236l19.743,19.743
	L184.353,457.708z M90.767,317.651l85.756,85.756l-23.237,23.237c-4.908,4.909-11.448,7.612-18.413,7.612
	c-6.966,0-13.506-2.703-18.415-7.613l-48.927-48.928c-4.909-4.908-7.612-11.448-7.612-18.413c0-6.967,2.703-13.507,7.612-18.415
	L90.767,317.651z M490.903,273.374L292.297,471.979c-6.769,6.771-17.787,6.771-24.557,0L57.824,262.064
	c-3.28-3.279-5.086-7.639-5.086-12.278c0-4.639,1.806-8.999,5.086-12.278L256.429,38.901c6.77-6.77,17.787-6.773,24.558,0
	l209.915,209.915C497.674,255.587,497.674,266.603,490.903,273.374z"/>
<g>
</g>
<g>
</g>
<g>
</g>
<g>
</g>
<g>
</g>
<g>
</g>
<g>
</g>
<g>
</g>
<g>
</g>
<g>
</g>
<g>
</g>
<g>
</g>
<g>
</g>
<g>
</g>
<g>
</g>
</svg>
