<?xml version="1.0" encoding="iso-8859-1"?>
<!-- Generator: Adobe Illustrator 19.0.0, SVG Export Plug-In . SVG Version: 6.00 Build 0)  -->
<svg version="1.1" id="Layer_1" xmlns="http://www.w3.org/2000/svg" xmlns:xlink="http://www.w3.org/1999/xlink" x="0px" y="0px"
	 viewBox="0 0 512 512" style="enable-background:new 0 0 512 512;" xml:space="preserve">
<path style="fill:#C3C6C8;" d="M237.898,108.296l-22.461-34.118c-3.562-5.412-9.89-8.711-16.707-8.711H18.682
	c-5.862,0-10.613,4.424-10.613,9.882v32.591L237.898,108.296z"/>
<path style="fill:#FF6361;" d="M211.089,187.359v-79.206H29.385v226.362h367.771V195.968H219.698
	C214.944,195.968,211.089,192.114,211.089,187.359z"/>
<g style="opacity:0.15;">
	<path d="M62.95,309.149c-5.438,0-9.846-4.408-9.846-9.845V108.153h-23.72v226.362h367.771v-25.366H62.95z"/>
</g>
<rect x="290.812" y="136.417" style="fill:#C3C6C8;" width="78.941" height="59.552"/>
<rect x="290.812" y="136.417" style="opacity:0.15;enable-background:new    ;" width="16.246" height="59.552"/>
<path style="fill:#586069;" d="M380.695,109.393H279.873c-2.035,0-3.684,1.649-3.684,3.684v29.168c0,2.035,1.649,3.684,3.684,3.684
	h100.823c2.035,0,3.684-1.649,3.684-3.684v-29.168C384.379,111.042,382.73,109.393,380.695,109.393z"/>
<path style="opacity:0.15;enable-background:new    ;" d="M289.556,135.886c-2.035,0-3.684-1.649-3.684-3.684v-22.81h-5.999
	c-2.035,0-3.684,1.649-3.684,3.684v29.168c0,2.035,1.649,3.684,3.684,3.684h100.823c2.035,0,3.684-1.649,3.684-3.684v-6.359H289.556
	z"/>
<g>
	<circle style="fill:#333E48;" cx="74.219" cy="402.008" r="44.522"/>
	<circle style="fill:#333E48;" cx="197.238" cy="402.008" r="44.522"/>
	<circle style="fill:#333E48;" cx="320.26" cy="402.008" r="44.522"/>
</g>
<path style="fill:#FFB547;" d="M358.277,273.311h-48.775c-4.456,0-8.069-3.613-8.069-8.069c0-4.456,3.613-8.069,8.069-8.069h48.775
	c4.456,0,8.069,3.613,8.069,8.069C366.347,269.698,362.734,273.311,358.277,273.311z"/>
<g>
	<path style="fill:#333E48;" d="M358.277,246.492h-27.993c-4.456,0-8.069-3.613-8.069-8.069c0-4.456,3.613-8.069,8.069-8.069h27.993
		c4.456,0,8.069,3.613,8.069,8.069C366.347,242.879,362.734,246.492,358.277,246.492z"/>
	<path style="fill:#333E48;" d="M425.428,348.317h-17.447c-5.979,0-10.825-4.846-10.825-10.825V192.991
		c0-5.979,4.847-10.825,10.825-10.825h17.447c5.979,0,10.825,4.847,10.825,10.825v144.501
		C436.253,343.47,431.407,348.317,425.428,348.317z"/>
</g>
<path style="opacity:0.15;enable-background:new    ;" d="M407.981,182.166c-5.979,0-10.825,4.847-10.825,10.825v144.501
	c0,5.979,4.847,10.825,10.825,10.825h3.467V187.431c0-1.913,0.5-3.707,1.371-5.267h-4.837V182.166z"/>
<path style="fill:#7D868C;" d="M451.155,238.197h-14.903v54.088h14.903c3.369,0,6.1-2.732,6.1-6.101v-41.887
	C457.256,240.929,454.525,238.197,451.155,238.197z"/>
<path style="fill:#586069;" d="M436.253,342.757h-39.097v55.414c0,26.709,21.652,48.361,48.361,48.361h49.113
	c7.625,0,12.001-8.682,7.465-14.811L436.253,342.757z"/>
<path style="opacity:0.15;enable-background:new    ;" d="M502.789,432.815h-42.98c-26.709,0-48.361-21.652-48.361-48.362v-41.696
	h-14.293v55.414c0,26.709,21.652,48.361,48.361,48.361h49.113C501.812,446.532,506.104,438.832,502.789,432.815z"/>
<path style="fill:#333E48;" d="M453.171,423.787c-2.499,0-4.962-1.157-6.542-3.335l-21.214-29.274
	c-2.614-3.609-1.81-8.654,1.799-11.269s8.654-1.81,11.269,1.799l21.214,29.274c2.614,3.609,1.81,8.654-1.799,11.269
	C456.468,423.288,454.811,423.787,453.171,423.787z"/>
<path style="fill:#C3C6C8;" d="M459.731,328.032H14.251c-3.414,0-6.181,2.767-6.181,6.181v17.088c0,3.414,2.767,6.181,6.181,6.181
	h445.48c3.414,0,6.181-2.767,6.181-6.181v-17.088C465.912,330.799,463.144,328.032,459.731,328.032z"/>
<path style="opacity:0.15;enable-background:new    ;" d="M23.934,348.164c-3.414,0-6.181-2.767-6.181-6.181v-13.95h-3.502
	c-3.414,0-6.181,2.767-6.181,6.181v17.088c0,3.414,2.767,6.181,6.181,6.181h445.48c3.414,0,6.181-2.767,6.181-6.181v-3.137H23.934z"
	/>
<path style="fill:#333E48;" d="M164.438,145.928H76.036c-5.267,0-9.536,4.269-9.536,9.536v41.197c0,5.267,4.269,9.536,9.536,9.536
	h88.402c5.267,0,9.536-4.269,9.536-9.536v-41.197C173.974,150.198,169.704,145.928,164.438,145.928z"/>
<path style="fill:#586069;" d="M233.679,122.177H15.744c-4.239,0-7.675-3.437-7.675-7.675V94.92h225.609
	c4.239,0,7.675,3.437,7.675,7.675v11.906C241.355,118.74,237.918,122.177,233.679,122.177z"/>
<path style="opacity:0.15;enable-background:new    ;" d="M26.503,113.063c-4.239,0-7.675-3.437-7.675-7.675V94.92H8.069v19.582
	c0,4.239,3.437,7.675,7.675,7.675h217.935c4.239,0,7.676-3.437,7.676-7.675v-1.439H26.503V113.063z"/>
<g style="opacity:0.15;">
	<path d="M153.847,300.354H86.627c-9.708,0-17.605-7.897-17.605-17.605V239.86c0-9.707,7.897-17.605,17.605-17.605h67.221
		c9.708,0,17.605,7.897,17.605,17.605v42.889C171.453,292.457,163.556,300.354,153.847,300.354z M86.627,238.395
		c-0.809,0-1.466,0.657-1.466,1.466v42.888c0,0.808,0.657,1.466,1.466,1.466h67.221c0.809,0,1.466-0.657,1.466-1.466v-42.888
		c0-0.809-0.657-1.466-1.466-1.466L86.627,238.395L86.627,238.395z"/>
	<path d="M129.918,265.454h-19.361c-4.456,0-8.069-3.613-8.069-8.069s3.613-8.069,8.069-8.069h19.361
		c4.456,0,8.069,3.613,8.069,8.069S134.374,265.454,129.918,265.454z"/>
</g>
<g>
	<path style="fill:#E8E8E8;" d="M211.09,282.131c-4.456,0-8.069-3.613-8.069-8.069v-47.341c0-4.456,3.613-8.069,8.069-8.069
		c4.456,0,8.069,3.613,8.069,8.069v47.341C219.159,278.518,215.546,282.131,211.09,282.131z"/>
	<path style="fill:#E8E8E8;" d="M242.43,258.461c-4.456,0-8.069-3.613-8.069-8.069v-23.67c0-4.456,3.613-8.069,8.069-8.069
		c4.456,0,8.069,3.613,8.069,8.069v23.67C250.5,254.848,246.887,258.461,242.43,258.461z"/>
</g>
<path style="fill:#C3C6C8;" d="M320.26,418.146h-123.02c-8.913,0-16.139-7.226-16.139-16.139s7.226-16.139,16.139-16.139h123.02
	c8.913,0,16.139,7.226,16.139,16.139C336.398,410.921,329.173,418.146,320.26,418.146z"/>
<path style="fill:#7D868C;" d="M197.239,418.146H74.219c-8.913,0-16.139-7.226-16.139-16.139s7.226-16.139,16.139-16.139h123.02
	c8.913,0,16.139,7.226,16.139,16.139C213.378,410.921,206.152,418.146,197.239,418.146z"/>
<path style="fill:#1E252B;" d="M508.581,426.921l-45.689-61.735c6.339-1.444,11.09-7.115,11.09-13.885v-17.088
	c0-7.857-6.393-14.251-14.251-14.251h-15.407v-19.609h6.833c7.813,0,14.17-6.357,14.17-14.17v-41.887
	c0-7.813-6.357-14.17-14.17-14.17h-6.833v-37.137c0-10.418-8.476-18.894-18.894-18.894h-17.447c-8.653,0-15.947,5.853-18.178,13.802
	h-11.977v-33.901h2.87c6.48,0,11.753-5.272,11.753-11.753v-29.168c0-6.48-5.272-11.753-11.753-11.753H279.874
	c-6.48,0-11.753,5.272-11.753,11.753v29.168c0,6.48,5.272,11.753,11.753,11.753h2.869v33.901h-63.044
	c-0.297,0-0.539-0.242-0.539-0.539v-57.113h14.521c8.682,0,15.744-7.062,15.744-15.744v-11.907c0-8.682-7.062-15.744-15.744-15.744
	h-0.239l-11.264-17.109c-5.089-7.728-13.854-12.343-23.447-12.343H18.682C8.38,57.398,0,65.452,0,75.35v39.151
	c0,8.682,7.063,15.744,15.745,15.744h5.57v189.717h-7.065C6.393,319.963,0,326.356,0,334.213v17.088
	c0,7.857,6.393,14.251,14.251,14.251h22.112c-9.115,9.462-14.738,22.31-14.738,36.456c0,29.002,23.594,52.594,52.594,52.594
	c19.957,0,37.732-10.975,46.706-28.386h29.608c8.973,17.411,26.747,28.386,46.706,28.386s37.732-10.975,46.705-28.386h29.609
	c8.973,17.411,26.747,28.386,46.706,28.386c29,0,52.594-23.594,52.594-52.594c0-14.145-5.623-26.994-14.738-36.456h30.972v32.619
	c0,31.116,25.314,56.431,56.43,56.431h49.113c6.592,0,12.531-3.657,15.499-9.545C513.095,439.171,512.503,432.221,508.581,426.921z
	 M444.323,246.266h4.864v37.949h-4.864V246.266z M405.225,192.991c0-1.519,1.236-2.755,2.755-2.755h17.447
	c1.52,0,2.755,1.236,2.755,2.755v126.972h-22.958V192.991z M284.258,117.462h92.052v20.396h-92.052V117.462z M361.687,153.997
	v33.901H298.88v-33.901H361.687z M219.698,204.037h169.388v115.925H37.454V130.246H203.02v57.113
	C203.02,196.555,210.501,204.037,219.698,204.037z M16.139,75.35c0-0.858,1.045-1.814,2.543-1.814H198.73
	c4.085,0,7.905,1.946,9.967,5.078l5.422,8.235H16.139V75.35z M16.139,114.107V102.99h217.146v11.118H16.139z M74.219,438.463
	c-20.101,0-36.456-16.354-36.456-36.456c0-20.102,16.354-36.456,36.456-36.456c10.718,0,20.515,4.58,27.284,12.247H74.219
	c-13.349,0-24.208,10.859-24.208,24.208s10.859,24.208,24.208,24.208h27.283C94.734,433.884,84.938,438.463,74.219,438.463z
	 M74.219,410.078c-4.45,0-8.069-3.619-8.069-8.069c0-4.45,3.619-8.069,8.069-8.069h123.02c4.45,0,8.069,3.619,8.069,8.069
	c0,4.45-3.619,8.069-8.069,8.069H74.219z M112.204,365.552h47.051c-3.43,3.589-6.377,7.697-8.723,12.247h-29.607
	C118.581,373.249,115.634,369.142,112.204,365.552z M169.955,377.8c6.77-7.668,16.566-12.247,27.284-12.247
	c10.718,0,20.515,4.58,27.284,12.247H169.955z M197.239,438.463c-10.718,0-20.515-4.58-27.284-12.247h54.568
	C217.754,433.884,207.958,438.463,197.239,438.463z M220.06,410.078c0.896-2.525,1.388-5.241,1.388-8.069
	c0-2.829-0.493-5.544-1.388-8.069h100.2c4.45,0,8.069,3.619,8.069,8.069c0,4.45-3.619,8.069-8.069,8.069H220.06z M235.224,365.552
	h47.051c-3.43,3.589-6.377,7.697-8.721,12.247h-29.607C241.601,373.249,238.653,369.142,235.224,365.552z M320.26,438.463
	c-10.718,0-20.515-4.579-27.284-12.247h27.283c13.349,0,24.208-10.859,24.208-24.208s-10.859-24.208-24.208-24.208h-27.284
	c6.77-7.668,16.566-12.247,27.284-12.247c20.102,0,36.456,16.354,36.456,36.456C356.715,422.109,340.361,438.463,320.26,438.463z
	 M16.139,349.413v-13.312h441.703v13.312H16.139z M495.716,437.794c-0.338,0.669-0.881,0.669-1.087,0.669h-49.113
	c-22.217,0-40.291-18.074-40.291-40.292v-32.619h37.859l52.523,70.97C495.729,436.687,496.054,437.124,495.716,437.794z"/>
<g>
</g>
<g>
</g>
<g>
</g>
<g>
</g>
<g>
</g>
<g>
</g>
<g>
</g>
<g>
</g>
<g>
</g>
<g>
</g>
<g>
</g>
<g>
</g>
<g>
</g>
<g>
</g>
<g>
</g>
</svg>
